<?xml version="1.0" encoding="UTF-8" standalone="no"?>
<!DOCTYPE svg PUBLIC "-//W3C//DTD SVG 1.1//EN"
 "http://www.w3.org/Graphics/SVG/1.1/DTD/svg11.dtd">
<!-- Generated by graphviz version 2.26.3 (20100126.1600)
 -->
<!-- Title: G Pages: 1 -->
<svg width="408pt" height="272pt"
 viewBox="0.00 0.00 408.00 272.00" xmlns="http://www.w3.org/2000/svg" xmlns:xlink="http://www.w3.org/1999/xlink">
<g id="graph1" class="graph" transform="scale(1 1) rotate(0) translate(4 268)">
<title>G</title>
<polygon fill="white" stroke="white" points="-4,5 -4,-268 405,-268 405,5 -4,5"/>
<g id="graph2" class="cluster"><title>cluster_Global</title>
<polygon fill="none" stroke="gray" points="180,-8 180,-220 392,-220 392,-8 180,-8"/>
<text text-anchor="middle" x="286" y="-206.1" font-family="Times Roman,serif" font-size="11.00" fill="gray">style</text>
</g>
<g id="graph3" class="cluster"><title>cluster_\Shapeways</title>
<polyline fill="none" stroke="gray" points="200,-62 372,-62 "/>
<path fill="none" stroke="gray" d="M372,-62C378,-62 384,-68 384,-74"/>
<polyline fill="none" stroke="gray" points="384,-74 384,-178 "/>
<path fill="none" stroke="gray" d="M384,-178C384,-184 378,-190 372,-190"/>
<polyline fill="none" stroke="gray" points="372,-190 200,-190 "/>
<path fill="none" stroke="gray" d="M200,-190C194,-190 188,-184 188,-178"/>
<polyline fill="none" stroke="gray" points="188,-178 188,-74 "/>
<path fill="none" stroke="gray" d="M188,-74C188,-68 194,-62 200,-62"/>
<text text-anchor="middle" x="286" y="-176.1" font-family="Times Roman,serif" font-size="11.00" fill="gray">Shapeways</text>
</g>
<!-- \\Shapeways\\ParameterValidationException -->
<g id="node3" class="node"><title>\\Shapeways\\ParameterValidationException</title>
<polygon fill="none" stroke="black" points="376,-160 196,-160 196,-124 376,-124 376,-160"/>
<text text-anchor="middle" x="286" y="-139.1" font-family="Times Roman,serif" font-size="11.00">ParameterValidationException</text>
</g>
<!-- \\Exception -->
<g id="node7" class="node"><title>\\Exception</title>
<ellipse fill="none" stroke="black" cx="62" cy="-142" rx="61.8445" ry="18"/>
<text text-anchor="middle" x="62" y="-137.9" font-family="Times Roman,serif" font-size="14.00" fill="gray">\Exception</text>
</g>
<!-- \\Shapeways\\ParameterValidationException&#45;&gt;\\Exception -->
<g id="edge4" class="edge"><title>\\Shapeways\\ParameterValidationException&#45;&gt;\\Exception</title>
<path fill="none" stroke="black" d="M195.859,-142C175.361,-142 153.847,-142 134.209,-142"/>
<polygon fill="none" stroke="black" points="134.126,-138.5 124.126,-142 134.126,-145.5 134.126,-138.5"/>
</g>
<!-- \\Shapeways\\Client -->
<g id="node4" class="node"><title>\\Shapeways\\Client</title>
<polygon fill="none" stroke="black" points="313,-106 259,-106 259,-70 313,-70 313,-106"/>
<text text-anchor="middle" x="286" y="-85.1" font-family="Times Roman,serif" font-size="11.00">Client</text>
</g>
<!-- rounded -->
<g id="node5" class="node"><title>rounded</title>
<ellipse fill="none" stroke="black" cx="286" cy="-34" rx="50.9221" ry="18"/>
<text text-anchor="middle" x="286" y="-29.9" font-family="Times Roman,serif" font-size="14.00">rounded</text>
</g>
<!-- Exception -->
<g id="node8" class="node"><title>Exception</title>
<ellipse fill="none" stroke="black" cx="286" cy="-246" rx="57.8712" ry="18"/>
<text text-anchor="middle" x="286" y="-241.9" font-family="Times Roman,serif" font-size="14.00">Exception</text>
</g>
</g>
</svg>
